<svg width="191" height="28" viewBox="0 0 191 28" fill="none" xmlns="http://www.w3.org/2000/svg">
<path d="M14 4.58001L16.1858 9.83534L16.5377 10.6813L17.4509 10.7545L23.1245 11.2093L18.8018 14.9122L18.106 15.5082L18.3186 16.3994L19.6392 21.9358L14.7819 18.969L14 18.4914L13.2181 18.969L8.36075 21.9358L9.6814 16.3994L9.89398 15.5082L9.19817 14.9122L4.87551 11.2093L10.5491 10.7545L11.4623 10.6813L11.8142 9.83534L14 4.58001Z" fill="#F1C644" stroke="#F1C644" stroke-width="3"/>
<path d="M55 4.58001L57.1858 9.83534L57.5377 10.6813L58.4509 10.7545L64.1245 11.2093L59.8018 14.9122L59.106 15.5082L59.3186 16.3994L60.6392 21.9358L55.7819 18.969L55 18.4914L54.2181 18.969L49.3608 21.9358L50.6814 16.3994L50.894 15.5082L50.1982 14.9122L45.8755 11.2093L51.5491 10.7545L52.4623 10.6813L52.8142 9.83534L55 4.58001Z" fill="#F1C644" stroke="#F1C644" stroke-width="3"/>
<path d="M95.5 4.70844L97.5461 9.817L97.8906 10.6772L98.8141 10.7541L104.253 11.2069L100.067 14.9306L99.4028 15.5212L99.6018 16.3872L100.862 21.8739L96.3034 18.9824L95.5 18.4728L94.6966 18.9824L90.1379 21.8739L91.3982 16.3872L91.5972 15.5212L90.9333 14.9306L86.7472 11.2069L92.1859 10.7541L93.1094 10.6772L93.4539 9.817L95.5 4.70844Z" fill="#F1C644" stroke="#F1C644" stroke-width="3"/>
<path d="M136 4.58001L138.186 9.83534L138.538 10.6813L139.451 10.7545L145.124 11.2093L140.802 14.9122L140.106 15.5082L140.319 16.3994L141.639 21.9358L136.782 18.969L136 18.4914L135.218 18.969L130.361 21.9358L131.681 16.3994L131.894 15.5082L131.198 14.9122L126.876 11.2093L132.549 10.7545L133.462 10.6813L133.814 9.83534L136 4.58001Z" fill="#F1C644" stroke="#F1C644" stroke-width="3"/>
<path d="M177 0.674072L180.571 9.25929L189.839 10.0023L182.778 16.0514L184.935 25.0958L177 20.2491L169.065 25.0958L171.222 16.0514L164.161 10.0023L173.429 9.25929L177 0.674072Z" fill="#D4D4D4"/>
</svg>
