<svg width="92" height="95" viewBox="0 0 92 95" fill="none" xmlns="http://www.w3.org/2000/svg">
<path d="M36.8 85.1C36.8 87.593 35.8307 89.984 34.1054 91.7468C32.38 93.5096 30.04 94.5 27.6 94.5C25.16 94.5 22.82 93.5096 21.0946 91.7468C19.3693 89.984 18.4 87.593 18.4 85.1C18.4 82.607 19.3693 80.216 21.0946 78.4532C22.82 76.6904 25.16 75.7 27.6 75.7C30.04 75.7 32.38 76.6904 34.1054 78.4532C35.8307 80.216 36.8 82.607 36.8 85.1ZM73.6 75.7C71.16 75.7 68.82 76.6904 67.0946 78.4532C65.3693 80.216 64.4 82.607 64.4 85.1C64.4 87.593 65.3693 89.984 67.0946 91.7468C68.82 93.5096 71.16 94.5 73.6 94.5C76.04 94.5 78.3801 93.5096 80.1054 91.7468C81.8307 89.984 82.8 87.593 82.8 85.1C82.8 82.607 81.8307 80.216 80.1054 78.4532C78.3801 76.6904 76.04 75.7 73.6 75.7ZM28.52 59.861C28.474 60.049 28.474 60.237 28.52 60.425C28.52 60.7366 28.6412 61.0355 28.8568 61.2558C29.0725 61.4762 29.365 61.6 29.67 61.6H82.8V71H27.6C25.16 71 22.82 70.0096 21.0946 68.2468C19.3693 66.484 18.4 64.093 18.4 61.6C18.4 59.955 18.722 58.357 19.504 56.9L25.76 45.573L9.2 9.9H0V0.5H15.042L19.366 9.9H87.4C88.62 9.9 89.79 10.3952 90.6527 11.2766C91.5154 12.158 92 13.3535 92 14.6C92 15.399 91.77 16.198 91.448 16.95L74.98 47.5C73.324 50.414 70.242 52.2 66.93 52.2H32.66L28.52 59.861ZM36.8 35.75H55.2V45.15L69 31.05L55.2 16.95V26.35H36.8V35.75Z" fill="#8338EC"/>
</svg>
