<svg width="94" height="90" viewBox="0 0 94 90" fill="none" xmlns="http://www.w3.org/2000/svg">
<path d="M69.2391 8.18182H4.54348V0H69.2391V8.18182ZM67.2174 45H61.1522V65.4545L75.7491 74.2909L78.7817 69.3L67.2174 62.3864V45ZM93.5 61.3636C93.5 77.1954 80.8439 90 65.1956 90C50.9222 90 39.1961 79.3227 37.2148 65.4545H4.54348V40.9091H0.5V32.7273L4.54348 12.2727H69.2391L73.2826 32.7273V33.9136C84.9683 37.4727 93.5 48.3954 93.5 61.3636ZM12.6304 57.2727H36.8913V40.9091H12.6304V57.2727ZM85.413 61.3636C85.413 50.0727 76.3557 40.9091 65.1956 40.9091C54.0356 40.9091 44.9783 50.0727 44.9783 61.3636C44.9783 72.6545 54.0356 81.8182 65.1956 81.8182C76.3557 81.8182 85.413 72.6545 85.413 61.3636Z" fill="#8338EC"/>
</svg>
