<svg width="86" height="95" viewBox="0 0 86 95" fill="none" xmlns="http://www.w3.org/2000/svg">
<path d="M43 54.2857C36.7379 54.2857 30.7324 51.9026 26.3044 47.6607C21.8765 43.4189 19.3889 37.6656 19.3889 31.6667H28.8333C28.8333 35.266 30.3259 38.718 32.9827 41.2631C35.6394 43.8083 39.2428 45.2381 43 45.2381C46.7572 45.2381 50.3606 43.8083 53.0174 41.2631C55.6741 38.718 57.1667 35.266 57.1667 31.6667H66.6111C66.6111 37.6656 64.1235 43.4189 59.6956 47.6607C55.2676 51.9026 49.2621 54.2857 43 54.2857ZM43 9.04762C46.7572 9.04762 50.3606 10.4775 53.0174 13.0226C55.6741 15.5677 57.1667 19.0197 57.1667 22.619H28.8333C28.8333 19.0197 30.3259 15.5677 32.9827 13.0226C35.6394 10.4775 39.2428 9.04762 43 9.04762ZM76.0556 22.619H66.6111C66.6111 19.6487 66.0004 16.7074 64.8138 13.9631C63.6273 11.2188 61.8881 8.72534 59.6956 6.62497C57.5031 4.52459 54.9002 2.85849 52.0356 1.72177C49.171 0.585059 46.1007 0 43 0C36.7379 0 30.7324 2.38307 26.3044 6.62497C21.8765 10.8669 19.3889 16.6201 19.3889 22.619H9.94444C4.70278 22.619 0.5 26.6452 0.5 31.6667V85.9524C0.5 88.352 1.49504 90.6533 3.26621 92.35C5.03739 94.0468 7.43962 95 9.94444 95H76.0556C78.5604 95 80.9626 94.0468 82.7338 92.35C84.505 90.6533 85.5 88.352 85.5 85.9524V31.6667C85.5 26.6452 81.25 22.619 76.0556 22.619Z" fill="#8338EC"/>
</svg>
